/* XPM */
static char *result[] = {
/* columns rows colors chars-per-pixel */
"64 64 112 2 ",
"   c #030303",
".  c #090705",
"X  c #060806",
"o  c #0B0906",
"O  c #080408",
"+  c #0C0B0B",
"@  c #110D0C",
"#  c #0E100E",
"$  c #11100F",
"%  c #110E10",
"&  c #141313",
"*  c #191615",
"=  c #191817",
"-  c #1A1619",
";  c #1C1B1B",
":  c #211E1D",
">  c #21201F",
",  c #211F21",
"<  c #242223",
"1  c #292625",
"2  c #2B2927",
"3  c #292629",
"4  c #2D2B2B",
"5  c #312D2D",
"6  c #2F302F",
"7  c #33312E",
"8  c #322E31",
"9  c #343233",
"0  c #3A3535",
"q  c #373837",
"w  c #3A3837",
"e  c #3A3639",
"r  c #3D3B3B",
"t  c #423D3D",
"y  c #3F403D",
"u  c #44413F",
"i  c #423D41",
"p  c #483F42",
"a  c #454343",
"s  c #4A4544",
"d  c #4C4847",
"f  c #4A4649",
"g  c #4D4A4A",
"h  c #524D4D",
"j  c #54514E",
"k  c #524E51",
"l  c #584F51",
"z  c #555253",
"x  c #5A5554",
"c  c #575957",
"v  c #5B5956",
"b  c #5B5659",
"n  c #5D5B5B",
"m  c #615A57",
"M  c #625D5C",
"N  c #5F605F",
"B  c #64615E",
"V  c #625E61",
"C  c #695F60",
"Z  c #656363",
"A  c #696464",
"S  c #676867",
"D  c #6C6966",
"F  c #6B6669",
"G  c #6D6A6A",
"H  c #706A67",
"J  c #706668",
"K  c #726D6C",
"L  c #75716F",
"P  c #726F71",
"I  c #757272",
"U  c #7A7574",
"Y  c #777872",
"T  c #7D7976",
"R  c #7B767A",
"E  c #7D7A7A",
"W  c #817874",
"Q  c #817678",
"!  c #827C7C",
"~  c #85817E",
"^  c #8A837F",
"/  c #837E81",
"(  c #887F81",
")  c #868282",
"_  c #8B8484",
"`  c #8D8986",
"'  c #8B8788",
"]  c #8D8A8A",
"[  c #928985",
"{  c #918789",
"}  c #928C8C",
"|  c #96918F",
" . c #938E90",
".. c #988F90",
"X. c #959292",
"o. c #9A9493",
"O. c #9D9A96",
"+. c #9C9799",
"@. c #9D9A9A",
"#. c #A39B97",
"$. c #A29C9B",
"%. c #A5A19D",
"&. c #ACA39F",
"*. c #A19EA1",
"=. c #A5A1A3",
"-. c #AAA4A2",
";. c #ADA9A5",
":. c #A8A5A8",
">. c #ADA9AA",
",. c #B1A7A3",
"<. c #B3ADAC",
"1. c #B3B0AB",
/* pixels */
"~ ) [ }  . .) P S N c c c N P E / R I K M d 0 1 w g Z V g 9 3 9 g G P P I G N q + + < B } ` ] ' ) E c a a c ! ! U B c j N N B Z ",
"_ ` } X.X.X.] I S S N N N N Y E ) E U I B g 0 1 r h S V g e 3 e k P I I I P N r X + < Z } } ] ] ] ) n f a M ! ! T D N v v B S S ",
"` } o.+.+.+. .E P S N N N S Y ) ] / ! U A h 0 4 i z F S z r 3 r k P R R R R S i X + < H o.o.o.X. .] N f f Z ^ ) ~ D N v V S Z G ",
"} | o.T N n c j g g c c N S R ) ] ( ! U K B x d b C P Z g 8 ; 4 i c N N N c k 6 o + > G O.o.} ! / I n g h v H H A h u u k S S G ",
"` | o.M 4 , ; 2 2 5 a z N S R ) ] ) ! T U K K K K L U B g 1 + ; 2 u u u a a 0 < o + < D o.o.( K S S b h h k h l h e 3 3 y N S G ",
"` | o.n : * & > 1 2 u z N S R ) ] ) ! U U U L I I U U A d 1 + = 2 t u u i r 9 >   + < D o...( J S S b k k h h h s 8 < , i N S G ",
"L U T d * + + = ; > 9 a g c N G K G B B M B M B M M B j r ; + * : 5 7 7 7 7 2 ;   + < D o.| ! M n b b b m l h h d e 6 4 a S S G ",
"9 9 9 , + + + % $ $ ; , 3 3 6 q 0 9 7 5 5 4 4 4 4 5 4 1 ; & X + * * = : = ; & @   + < D o.| U h g k C P F C b x x h g f c S S G ",
"* * - % + X o o o + @ * * : * * : * * * & & - * * * & & & + X + o @ @ $ % % + O   + < G o.} L s p k C I I F M m m x x x B S D G ",
"O O O O O o o o o o o o o o o o @ o O O X O X X X X X o O O + X o o o . O O X X   + < D o.} K t i p F R R P M M M m M M B D G G ",
"i p s d h h h u y t t t t t : * + ; 3 6 r a a f a i r r a d g g g a a r e 8 8 ; X + < Z ] _ I z l z V C C V b b m K I U Y Y Y Y ",
"U U ! _ [ [ ^ L D B D D J m 5 : X 1 i z V K T ) T P A D I ! ' _ / R Y L C m g 8 + % : n / E Y Z Z M b k b b z z M R ' ] _ ! E E ",
"` } o.#.&.,.#.^ ! U E / Q F e , X 8 g V I ) } O.} ) W ! ` o.&.$.+. .] ) R F m t & % < n R R I G D Z x g k k k k b /  .X.] ~ ! ! ",
"} o.$.&.,.,.#.~ L D E ) ' P r , + 9 c P ! ] +.@.+.} _ ` X.%.;.-.=.@.+. .' Q F f % % ; a Z V V V B B m c c n b b V / ]  .] ~ ! ! ",
"..o.$.#.#...^ M g a V R ) P i , + r Z E ' ' _ ] ` } } } o.#.%.$.@.@.+.+.o. ./ k & + & 3 e q r a a g A I I P P P P R / / ! ! ! ! ",
"..#.$.o.[ [ U d 0 2 k R ) P r , X r Z ) ] ) ) E ) ` ....o.O.$.O.@.@.@.@.*.@.' z & X + * ; , 3 8 0 u G _ ) / R R I R P P U ! ! ~ ",
"..o.#...^ ^ H w < ; f P / G t , o r D ] } ( R P T _ | o.o.o.o.o.+.+.@.$.:.=.] n & + O O + + * 3 4 e I ] | ' / ) E P F F P R R E ",
"^ _ } ! U L D h a i k V S z 8 - % t A _ ) G c f v D T ! T Y U T ! ' ' _ ) E G s # X % , 3 4 9 i i f n S S N c c z g a a f b n n ",
"L T ! L S S Z Z V V x k f t , * @ r A ! U c r 3 t j B D B m v B G T T I Z c h 7 o o & 8 f f g c z z g s a y q q 8 3 < < 8 t e t ",
"H H L D B n Z K R R n p e 5 , * % r M ! L d 1 # > t j v j d s j n K D A h u w > o @ - i b b V S S n y 4 4 < ; ; ; % + O & , , 3 ",
"z x c z d d g N S G g 9 2 : * $ + 5 h A v 0 =   & 2 u u r 9 7 0 s x j h w 5 1 = o o * 0 h k l z c g 6 ; ; = % # X       O - - - ",
"7 9 q 9 4 4 6 r r a 6 , = $ # X X ; 9 t q > +   # ; 1 1 1 > > < 2 0 9 4 < - * @ . o @ > 7 7 9 0 q 6 ; % & + O O O       O + + % ",
"* * - & & & = ; ; ; * % o X X X X % * ; - + X   X + & $ $ # + $ & = = & @ @ o o o o o * : * = = = = + X X X     X         O O O ",
"X X X X X X X X O X X O o X X X X O X X O X                       X X o o o o o o o o o o o o       X X X X X O X             O ",
"3 4 5 4 6 6 6 4 4 4 8 q y y 6 6 4 9 9 q 6 > ; # = = = = $ X   + - 4 6 9 q q q 9 5 5 2 5 5 5 1 : ; : 1 3 2 5 q y 5 * X X + = > > ",
"h z v c b n b c c z N G G S N N n n B S N a 7 < 2 6 6 2 > +   = 6 z n N S G S V h h l l m l s 0 0 t d l j N S S n 3 # X - 9 q w ",
"T T ^ ) ) ) ) ) ! ! X.@.;.%.X.] ) ` | O.) S d 9 y u g y 6 & X > d E ' ] @.*.@.] Q Q Q ! W W H l l v H Q T ` %.%.` r & X 1 d j v ",
") ` } } X.] ] ] ] ] @.;.1.>.O.X.] | O.O.] I c d g j N g 0 = O > d E '  .@.*.*.X._ ( ( _ ^ ^ W m m M W _ _ ..;.&.| y & + 6 v B D ",
") _ } } ` _ _ ] ]  .@.=.;.%.X.] ~ ) _ ] ~ I B c N B B v t = . > u D W ! _ ] ] ] [ [ _ _ ! W K l l m Q ( _ | O.O.) r & + 7 B D L ",
"^ ` } ` ! ! ( ]  .X.X.@.@.X.) Y Y Y I P L P Y L L L Y B u >   = 7 x B B A G K E } ..[ ! Q W J h g l Q ( ` ) ^ ` Y 9 & + q L E ^ ",
") ` } ) U L T ) ]  . .] X.` Y Y G D Z Z Z L E ~ ~ ! T B d >   & 4 d h h h h v L ......! Q K M d p l H ! ~ ! ~ Y D 6 $ X r U ^ ] ",
"_ [ } W A M A L R E / ) ) ) ) / / Y P G G Y Y T Y K D v u : o * 7 h j h h h v K ......Q K J m u t d M J D Y E ~ L 6 $ X 9 A U E ",
"[ [ o.L d s d m B S D L Y E )  .X.` ~ T Y Y L L H m j u 8 * + ; 7 j c z g g c G | o.} T K S x t t t s h h B ~ _ L 7 + X 3 z M A ",
"[ } o.M 5 , 1 0 u u j N N L | %.<.-.o.} ^ Y D B j u 7 1 : & % , w v N b g a z G | ..` Y A B h 0 7 7 2 : < h ` ` U 7 +   ; r i f ",
"T ! ) h : * * 1 7 7 u d g B ! | $.X.` ~ U S N j u 0 > : = @ + , 9 k z g a r d N ~ ! T Z v v u 5 5 1 : * & t U U G 4 o   & 8 9 e ",
"M Z D t - @ * , 2 2 7 y y g S Y ! U H A M j d a 0 2 : * & + + - 3 y y r 9 6 q d S Z B j s u w 1 : : : @ & 9 B Z z < X   % 3 , 8 ",
"1 3 4 ; O X X @ $ $ * ; = > 4 6 w 6 4 2 1 > > = * $ o o O X   + % ; ; = = & & , 1 3 2 > > = * $ @ @ X o O * < 1 < %     O + % & ",
"        X X X         X X X X         X   X   X . X X o O X X   X   X X X X X X         X o   . o o         X X X       O O O O ",
"# + @ & * * * & & # $ # # + O X X X # & * & & = = = = - - - - - & * = = = ; & %     X & - = ; = : * % @ % & = = * & % % & * - * ",
"1 2 4 9 r a r 9 9 6 4 1 3 ; # X   = 2 w y r y r u a d d f a f p i i a a g j a 3 X X $ 9 g g g d p p 0 1 3 9 a u i 9 8 6 e i a f ",
"d g j B W W U A V b k f f q ; +   4 j D Y Y Y Y ( ( { { ' ( / / T U ! ~ X.o.) h X + < A } } } } ] ) N g g N E / T F m b J ( ( ( ",
"j c v H ^ ^ ! P F V b k g e , # X 6 j D Y W ~ ^ ( ........ .' ' _ ! ) [ #.$.[ x + + < G o.o.o...X.' S z c S ~ ) ~ K F A I ( { ..",
"v v B L ! ( ! P F F b k f q , # X 2 d B H Y ~ ^ ( o.o.o...{  .' _ ! ) [ O.#._ z + + < D o.o...} ] ) N z j N I I Y I P U ( ( { ..",
"D H L Y ! ! ! U I I n a r 6 , - $ ; 1 7 d H [ %.$.$.$.o.X.{ / ' ^ ! ! _ ....! h X + < D o.X.` T Y L n z z j k k b / X.o...{ ..{ ",
"L U ! ! T T T E E E M a q 4 < ; * & * & 7 B [ 1.,.*.$.o. .' / ( ! ! ! { [ } W h + @ < D X.| ~ G F Z b k k a e e f ` -.1.*.o...{ ",
"L U T W E ! ! ! E ! n a q 6 3 < : : * * 7 B } 1.:.$.#...{ ' / ! ! ! ! { } [ Q d + + > A } [ ! G F Z c g g i e e f ` -.1.*...{ { ",
"m C F U / ( ( ) ( ( S g a r i i t 4 ; % 3 M [ <.@.' P J P P I U ! ! ! ! _ ! Q p X o ; h L L K K G Z i 6 8 e 9 e f _ =.<.@.) ( Q ",
"a f g F ( { } { } } P b k c V F F a < X < c _ -.( C t t p l M J K Q Q ! ! Q J t X O $ 5 u u x K P Z 3 O O ; 9 q d ~ %.;.} P F C ",
"a a a F ( _ { { { { K n k z V F F f , + , z ) *./ V e 9 t h m C J Q Q W Q U A t O X @ 2 t i z P P V 3 O O ; 8 9 f ! @.&.` G S N ",
"r r r n P I Q T Q U V g a a k b V r , O ; g P ] P z 8 4 0 s h l M A J J J C m 9 O X o 1 0 w f V V z , O O - 4 8 r K ` ] T N z z ",
"& & & > 1 1 3 1 3 1 < - * * , , ; * X   + - 3 6 1 - & % % * ; ; , , < < , 1 ; &       X % & ; , , , % O O O % + * 1 4 5 3 ; > ; ",
"                                                                                              O O O O O O                       ",
"                                                                                            O O O O O O O O                     ",
"9 9 e t r r 9 & O   ; r a a a r t 8 : - * - : , * + X + ; 8 a a t t 0 5 , % % & & & & & & & % O O O O O O & 3 3 3 , ; ; < 4 8 6 ",
"! ( ( { } } L 7 %   a ) *.:.+.X.} J h 0 0 t f k w , O - u U $.$.o.} ) K f 8 8 8 9 8 8 8 8 8 , O O O O O O 3 V C M f i e k G P I ",
"! ( { } | ..U 7 +   g ) =.>.*.+...J h t t p k k e , O ; a U =.#.#.o.) U f 8 8 8 8 8 9 9 8 8 , O O O O O O 8 C S V k i i b G I R ",
"( ( } ..o.o.U 9 &   g ) =.>.*.X.} I v s p h b b a 1 + - u I O.+.X.[ Q J f 8 8 8 e 9 9 9 8 8 3 , , - @ O O 8 D G A k p p b F P R ",
"( ( { ..o.O.U 9 &   a E X.+.) R K K A Z A P R / c 9 + & 4 z K D V x k f e 8 8 e e e e 8 8 9 f F J V , O O 9 P U P M k h l V V V ",
"( { } ..o.o.T 9 &   r Y  .| E K B H K P Q ) ] X.Z r # # < a v j f e e e 8 8 8 e i i e 8 3 9 n  .+./ 8 O O 0 U Q U V l b z c z z ",
"( ( } o.o.o.U 9 @   a I ] ] U D M D P T / ] X.X.G r + # < u j d i 9 8 8 8 8 8 e i i e 8 8 8 V *.*.' 9 O O 0 U Q T C b l z k k z ",
"( _ { _ / R V 3 +   3 a c n A D K I Q ! ! W I F g 4 + & 2 j D N g 9 9 e f l l l l h h s a a k Z V z , O   8 F P F V b z z k k k ",
"! ( _ U C V f , +   + & = 4 z G Q ! _ _ W A h t 4 - X & w B ^ L x 0 e d F / R P B B m m n x t , ; - O     3 b V V b b b b k j g ",
"! ( _ L b b a ; +     O O , k F ( ( _ [ W M d 9 < & X - r D ` U m e e h K _ ( R B B B B M n r + + O       < b b b b b b z g j g ",
"! ! _ K b k i ; O         ; k F ( ! { [ Q m i 4 , % X * r G ` E m 9 e h U } ] Q J J H A B M w             , k b b b b b x j j g "
};
